HIERARCHY
ROOT Hips
{
 OFFSET 0.000000 0.000000 0.000000
 CHANNELS 6 Xposition Yposition Zposition Yrotation Xrotation Zrotation
 JOINT Chest
 {
  OFFSET 0.000000 10.265206 0.006595
  CHANNELS 3 Yrotation Xrotation Zrotation
  JOINT Chest2
  {
   OFFSET 0.000000 11.389044 -0.011980
   CHANNELS 3 Yrotation Xrotation Zrotation
   JOINT Chest3
   {
    OFFSET 0.000000 10.290982 0.000000
    CHANNELS 3 Yrotation Xrotation Zrotation
    JOINT Chest4
    {
     OFFSET 0.000000 10.290982 0.000000
     CHANNELS 3 Yrotation Xrotation Zrotation
     JOINT Neck
     {
      OFFSET 0.000000 14.367993 0.000000
      CHANNELS 3 Yrotation Xrotation Zrotation
      JOINT Head
      {
       OFFSET 0.000000 9.574020 -0.028490
       CHANNELS 3 Yrotation Xrotation Zrotation
       End Site
       {
        OFFSET 0.000000 18.400023 -0.014881
       }
      }
     }
     JOINT RightCollar
     {
      OFFSET -3.015571 8.009391 0.000000
      CHANNELS 3 Yrotation Xrotation Zrotation
      JOINT RightShoulder
      {
       OFFSET -13.867120 0.000000 0.000000
       CHANNELS 3 Yrotation Xrotation Zrotation
       JOINT RightElbow
       {
        OFFSET -29.171974 0.000000 0.000000
        CHANNELS 3 Yrotation Xrotation Zrotation
        JOINT RightWrist
        {
         OFFSET -24.013854 0.000000 0.006497
         CHANNELS 3 Yrotation Xrotation Zrotation
         End Site
         {
          OFFSET -18.051397 0.000000 0.000000
         }
        }
       }
      }
     }
     JOINT LeftCollar
     {
      OFFSET 3.015571 8.009391 0.000000
      CHANNELS 3 Yrotation Xrotation Zrotation
      JOINT LeftShoulder
      {
       OFFSET 13.867120 0.000000 0.000000
       CHANNELS 3 Yrotation Xrotation Zrotation
       JOINT LeftElbow
       {
        OFFSET 29.171974 0.000000 0.000000
        CHANNELS 3 Yrotation Xrotation Zrotation
        JOINT LeftWrist
        {
         OFFSET 24.013854 0.000000 0.006497
         CHANNELS 3 Yrotation Xrotation Zrotation
         End Site
         {
          OFFSET 18.051397 0.000000 0.000000
         }
        }
       }
      }
     }
    }
   }
  }
 }
 JOINT RightHip
 {
  OFFSET -8.283980 -0.032318 -0.003298
  CHANNELS 3 Yrotation Xrotation Zrotation
  JOINT RightKnee
  {
   OFFSET 0.000000 -43.567000 0.003120
   CHANNELS 3 Yrotation Xrotation Zrotation
   JOINT RightAnkle
   {
    OFFSET 0.000000 -42.556413 0.005276
    CHANNELS 3 Yrotation Xrotation Zrotation
    JOINT RightToe
    {
     OFFSET 0.000000 -7.926623 17.954935
     CHANNELS 3 Yrotation Xrotation Zrotation
     End Site
     {
      OFFSET 0.000000 -1.555762 6.841994
     }
    }
   }
  }
 }
 JOINT LeftHip
 {
  OFFSET 8.283980 -0.032318 -0.003298
  CHANNELS 3 Yrotation Xrotation Zrotation
  JOINT LeftKnee
  {
   OFFSET 0.000000 -43.567000 0.003120
   CHANNELS 3 Yrotation Xrotation Zrotation
   JOINT LeftAnkle
   {
    OFFSET 0.000000 -42.556413 0.005276
    CHANNELS 3 Yrotation Xrotation Zrotation
    JOINT LeftToe
    {
     OFFSET 0.000000 -7.926623 17.954935
     CHANNELS 3 Yrotation Xrotation Zrotation
     End Site
     {
      OFFSET 0.000000 -1.555762 6.841994
     }
    }
   }
  }
 }
}
MOTION
Frames: 15
Frame Time: 0.033333
-24.992284 95.808073 -19.632943 -106.621290 -11.145811 0.074290 0.248508 2.254011 2.086688 0.004712 1.565022 0.960233 0.001671 1.252027 0.768136 -0.000321 0.939024 0.576076 4.230322 22.079056 -2.122303 5.073544 -2.255630 -3.279489 6.088615 5.159842 2.161756 61.277696 -42.385813 40.450059 100.363434 -3.183967 54.281106 2.468782 14.274000 35.139285 -6.628702 3.318185 -3.965752 -51.185630 -23.330599 -48.025026 -109.052832 3.227625 -41.831265 -7.832553 -2.149527 55.157523 -8.276901 9.836705 -2.414684 -3.136015 6.563660 -2.909225 2.207240 -2.800311 11.415151 -0.540085 0.506216 -1.339399 9.092821 3.537758 8.160033 -4.242957 25.334460 1.693103 -9.793414 -12.290782 -7.530189 -0.076680 -2.782188 0.379167
-24.855188 96.149747 -20.593517 -106.092694 -10.619020 0.677555 0.117146 2.719907 1.898290 -0.093488 1.781940 0.926282 -0.077091 1.425435 0.741208 -0.059545 1.068984 0.556057 4.312393 21.189586 -2.417212 5.223421 -3.276982 -3.614401 6.270230 5.253327 1.965231 60.476843 -42.583123 40.901235 100.135134 -3.381421 54.534256 2.836318 13.916419 34.936676 -6.676418 3.278647 -4.044105 -50.139741 -23.906890 -48.641782 -108.795198 2.535695 -42.801655 -7.837822 -1.882492 54.718101 -7.774613 10.201672 -2.370586 -4.257894 4.941619 -2.560542 2.148347 -1.738768 10.879609 -0.270435 0.328110 -0.966518 10.220288 -0.396557 8.696576 -4.458977 30.291574 1.243681 -12.049326 -10.875394 -8.752695 -0.027820 -3.589652 1.111829
-24.718296 96.451206 -21.350341 -105.606024 -9.963738 1.292996 -0.092297 3.285248 1.661549 -0.170636 2.061794 0.920641 -0.139149 1.649220 0.736937 -0.106344 1.236749 0.553040 4.428323 20.178967 -2.718567 5.412566 -4.419904 -3.964111 6.469197 5.244494 1.895735 59.811084 -42.752082 41.281655 99.563435 -3.519312 54.980248 3.408986 13.428384 34.655338 -6.646428 3.296109 -4.102500 -48.929537 -24.786837 -49.342458 -108.472455 1.827350 -43.976371 -7.861505 -1.408702 54.342671 -8.278492 10.398214 -2.731820 -4.469191 3.273356 -2.135211 2.389663 -0.766559 10.568686 -0.227187 0.191816 -0.772983 11.507279 -4.824072 9.272951 -5.485313 35.579617 0.001412 -14.077257 -8.612532 -9.496593 -0.009682 -4.421503 1.538411
-24.438880 96.681049 -21.817604 -105.188802 -9.262989 1.657932 -0.318490 3.834753 1.630873 -0.232646 2.373663 0.969817 -0.189311 1.898621 0.776532 -0.144384 1.423728 0.582934 4.557155 19.151568 -3.122480 5.645065 -5.557857 -4.430794 6.912991 5.284163 1.832206 59.593765 -42.852390 41.018859 98.889150 -3.804556 55.427879 3.997675 13.033513 34.188603 -6.553253 3.322344 -4.234368 -47.906452 -25.378700 -49.806831 -108.236052 1.460534 -44.644929 -7.975352 -0.847652 53.968237 -9.058094 10.493740 -2.941246 -4.311710 1.529502 -1.771488 2.538678 0.219865 10.388484 -0.125283 0.148456 -0.638767 11.782266 -9.581733 10.026432 -7.086502 41.085214 -2.265178 -14.804365 -5.599794 -10.201671 -0.033523 -5.175591 1.788328
-24.114020 96.948125 -22.079698 -104.980249 -8.576840 2.057925 -0.537186 4.289429 1.599189 -0.344956 2.709909 1.042547 -0.279870 2.167433 0.835213 -0.212842 1.625197 0.627328 4.864598 18.284451 -3.511368 6.078837 -6.489862 -4.931845 7.565835 5.374721 1.805515 60.034281 -42.439460 40.216895 98.409621 -3.840419 55.425850 4.568167 12.504070 33.428089 -6.287965 3.465340 -4.653005 -47.184689 -25.697392 -49.955032 -107.970651 1.264933 -45.061857 -8.142321 -0.060026 53.707998 -9.121417 10.337947 -3.254396 -4.988846 0.168828 -1.291944 3.032821 1.204095 10.288444 -0.051299 -0.036500 -0.554026 12.060059 -13.761280 10.813355 -7.822152 45.015707 -4.390162 -16.035887 -1.426832 -10.878179 -0.021904 -5.587458 1.874868
-23.833915 97.210619 -22.276406 -105.152195 -8.126391 2.731174 -0.753136 4.613309 1.423255 -0.465811 2.944106 1.067891 -0.376975 2.354600 0.856072 -0.285992 1.765427 0.643417 5.266358 17.914888 -3.735287 6.584279 -6.862960 -5.282690 8.286047 5.870904 1.724881 60.426340 -41.745277 39.501870 97.750466 -3.899080 55.341248 5.158642 11.959885 32.484118 -6.074124 3.912022 -5.279631 -46.493985 -25.780582 -50.093215 -107.759876 1.448646 -45.328944 -8.460699 0.532851 53.375631 -8.537951 10.191259 -3.641911 -5.453168 -0.817767 -1.148510 3.015370 1.984171 10.384671 0.017156 -0.202745 -0.491369 11.995185 -16.468445 11.405890 -7.828420 47.057633 -6.522132 -16.477008 2.957197 -11.430853 -0.118918 -5.293612 1.720117
-23.667878 97.425656 -22.517674 -105.851945 -8.046728 3.055103 -0.604561 5.179771 1.698106 -0.567199 3.096781 1.008856 -0.458035 2.476636 0.809375 -0.346755 1.856875 0.608794 5.600713 18.050522 -3.759049 6.966981 -6.687665 -5.397335 8.692128 6.574548 1.445916 60.912042 -41.104039 38.729826 96.699399 -3.975819 55.089370 5.968799 11.029915 31.278068 -5.816229 4.218614 -5.836318 -46.018998 -25.914200 -50.346485 -107.085322 1.432865 -45.686021 -8.906874 1.372419 52.954957 -7.891114 10.283030 -3.819029 -5.672774 -1.366476 -0.925230 3.246008 2.525111 10.408821 0.053817 -0.363073 -0.430333 12.695141 -17.674685 12.758196 -5.459627 48.315894 -6.893413 -18.027291 5.602972 -12.288111 -0.520851 -4.150401 1.763625
-23.655158 97.559253 -22.551911 -106.288626 -7.756864 3.718252 -0.960364 5.161973 1.436000 -0.727475 3.125916 0.907131 -0.585823 2.499822 0.728733 -0.442281 1.874173 0.548861 5.959530 18.499594 -3.623389 7.338219 -6.166496 -5.342107 8.947773 7.545311 0.930380 61.401109 -41.110276 38.209684 95.670931 -4.187650 54.989819 6.692081 10.669468 30.572686 -5.488860 4.767855 -6.266036 -45.049387 -26.795381 -50.940373 -106.066977 0.666215 -46.679577 -9.098143 2.055098 52.056742 -8.710068 9.861681 -4.719040 -5.508815 -1.407908 -0.689125 4.178740 2.426327 10.564290 0.022100 -0.219337 -0.391447 13.648586 -17.808260 13.368411 -3.634264 47.675079 -6.035268 -20.339671 6.166911 -14.659467 -0.095864 -2.247384 1.954966
-23.890046 97.634910 -22.511857 -106.775586 -7.823608 4.214273 -1.349036 4.906239 1.074149 -0.871250 3.044036 0.802351 -0.700277 2.434263 0.645462 -0.527701 1.824963 0.486815 6.216232 19.307509 -3.467739 7.593416 -5.242291 -5.238664 9.182823 8.789227 0.410710 62.386579 -41.824723 37.326336 94.696563 -4.413981 55.242385 6.994554 11.017161 29.724592 -5.147764 5.576578 -6.636226 -43.863383 -28.084014 -51.723762 -105.897054 0.583305 -48.011340 -9.399645 1.744488 51.447356 -9.770602 9.666033 -5.588107 -4.854701 -1.008324 -0.567420 4.884609 2.027337 10.743154 -0.001772 -0.093081 -0.317041 14.194233 -16.550748 13.731467 -4.912656 45.351205 -5.539275 -20.558764 5.870213 -16.667743 0.063167 -0.857017 0.948445
-24.243997 97.684411 -22.600254 -107.408935 -8.159014 4.242250 -1.480362 4.904754 0.879436 -0.959717 3.038191 0.682684 -0.770522 2.429648 0.550116 -0.579993 1.821548 0.415591 6.382419 20.031889 -3.431853 7.779428 -4.402352 -5.244627 9.250738 9.019022 0.210382 64.098252 -41.813890 35.565622 93.955776 -4.677777 54.868818 7.046094 10.448345 29.527122 -5.069436 5.756824 -6.745337 -43.253273 -28.895468 -51.902425 -105.963455 0.760594 -48.505800 -9.709046 2.036038 51.067933 -10.655299 9.795669 -5.779721 -3.625704 -0.440197 -0.822519 5.007536 1.600964 10.865240 0.037133 -0.102556 -0.170390 14.273693 -14.526059 14.248025 -7.406569 43.421415 -4.661885 -18.904392 4.735781 -17.510168 -0.126787 -0.282627 -0.697647
-24.541112 97.707008 -22.777122 -107.811034 -8.253989 4.037105 -1.609669 4.885403 0.583751 -0.969197 3.123710 0.529801 -0.777510 2.498261 0.427985 -0.584791 1.873156 0.324119 6.456337 20.373006 -3.457428 7.873891 -4.001086 -5.293630 9.313235 8.099916 0.284243 66.458008 -41.043910 33.324730 92.596691 -5.274668 54.025795 6.949182 10.264293 29.166406 -5.203772 5.267762 -6.537054 -43.191583 -29.293312 -51.574728 -106.439742 1.538200 -47.927918 -10.018063 2.541492 50.706531 -10.966542 9.675817 -5.369460 -3.156725 0.355781 -1.422529 5.147770 1.088036 11.055845 0.080266 -0.167182 -0.059743 12.350972 -12.235215 15.054388 -9.214202 41.796603 -4.142705 -15.990133 4.191682 -16.527527 -0.337283 -0.495045 -2.712337
-24.801481 97.696663 -22.847550 -108.356834 -8.765424 3.546322 -1.635537 4.780970 0.564510 -0.993480 3.067613 0.401030 -0.796344 2.453543 0.325020 -0.598472 1.839738 0.246927 6.574849 20.941634 -3.467286 8.018129 -3.329706 -5.337832 9.283594 7.854153 0.316249 68.713553 -40.587998 31.008637 91.399449 -6.068347 53.582488 6.406882 10.294511 28.616755 -5.339450 5.519384 -6.540426 -43.838869 -29.245858 -50.969588 -107.353609 2.946650 -46.277429 -10.607967 2.511300 49.721141 -11.114832 9.968656 -4.870795 -2.704816 1.133690 -1.866232 5.350425 0.670320 11.244588 0.063476 -0.241104 -0.005857 8.560560 -9.303738 16.256031 -8.549855 41.164827 -3.785143 -12.352609 4.353391 -14.081188 -0.934992 -1.137979 -4.369847
-25.032579 97.638100 -22.776107 -108.745997 -9.344443 3.038456 -1.518946 4.689563 0.450071 -0.961896 2.989866 0.253323 -0.770429 2.391560 0.206639 -0.578547 1.793413 0.157974 6.667317 21.388924 -3.281404 8.080655 -2.810298 -5.156896 8.992925 7.624233 0.471471 70.437566 -40.549869 29.023708 90.342743 -7.224109 53.861535 5.581190 10.146131 27.722078 -5.516339 5.793567 -6.280329 -44.682197 -29.079478 -50.895695 -109.360670 5.768492 -44.301972 -9.995791 1.654534 49.804225 -10.913983 10.367660 -4.367690 -2.331049 1.840773 -2.294482 5.116366 0.213020 11.470065 0.051982 -0.191134 0.043041 4.971546 -6.202192 16.631327 -6.858867 40.786662 -2.851964 -9.926982 4.613915 -11.783787 -1.269210 -1.667613 -4.869574
-25.280943 97.525247 -22.608396 -108.808372 -9.874997 2.559953 -1.274235 4.626811 0.341300 -0.822943 2.929821 0.155942 -0.658872 2.343683 0.128100 -0.494577 1.757626 0.098590 6.426079 21.629966 -2.937930 7.721313 -2.571063 -4.715459 8.113569 7.531652 0.455260 73.040221 -40.966855 27.170637 88.035755 -7.752689 54.337060 5.234083 9.566258 27.327234 -6.245948 5.787022 -5.666894 -44.747026 -29.684987 -51.765623 -111.152709 7.644668 -43.646251 -8.536781 2.046377 50.660267 -10.438092 10.839166 -3.943227 -2.595661 2.350159 -2.626534 4.939894 -0.229717 11.726723 0.011039 -0.064128 0.071468 2.493246 -3.228671 16.052665 -4.945956 39.914912 -0.697179 -10.246318 5.250791 -11.117210 -1.188877 -6.869855 -5.596163
-25.635603 97.513201 -22.264098 -108.856323 -10.545868 2.378611 -1.211967 4.612494 0.234509 -0.817308 2.864815 0.202120 -0.654541 2.291627 0.164940 -0.491459 1.718546 0.126144 6.283464 21.920442 -3.039518 7.590722 -2.235004 -4.793650 7.751387 7.677432 -0.081889 75.396310 -40.200972 24.860270 87.226139 -8.469526 53.773453 4.689756 9.157668 26.895720 -6.434408 5.683944 -5.454102 -44.785040 -30.296220 -52.889780 -112.498946 9.131153 -43.327648 -7.771082 2.655824 52.013649 -9.839529 11.486684 -3.932089 -2.696416 2.719646 -2.899349 4.379504 -0.441105 12.036866 0.072412 -0.074420 0.129534 1.936202 -0.427715 14.894804 -6.360704 38.344515 0.213728 -9.619124 4.702598 -11.988478 -0.837786 -3.982880 -3.219325
